<?xml version="1.0" encoding="UTF-8"?> <svg xmlns="http://www.w3.org/2000/svg" width="24" height="24" viewBox="0 0 24 24" fill="none"><path fill-rule="evenodd" clip-rule="evenodd" d="M7.09015 11.2896C10.2324 9.85551 13.3746 8.42237 16.5159 6.98831C16.7407 6.88614 16.9709 7.11901 16.8699 7.34636C15.5113 10.3921 14.1527 13.4388 12.794 16.4855C12.6939 16.7101 12.3718 16.6917 12.2981 16.457C11.9277 15.2843 11.4682 14.1632 10.7729 13.5134C9.90842 12.7052 8.49519 12.2137 7.122 11.7931C6.8854 11.7213 6.86538 11.3917 7.09015 11.2896ZM20.9995 3.87259C21.0296 2.91808 19.6218 2.88679 19.0594 3.12334C14.8434 4.90441 10.7684 7.0104 6.54596 8.77766C5.86255 9.10534 5.18187 9.43302 4.49846 9.76162C3.57299 10.231 1.54914 10.9739 2.09059 12.0397C2.84135 13.5189 4.95346 13.6524 6.67518 14.1043C7.97012 14.4449 9.01025 15.4159 9.44432 16.6954C9.68911 17.4142 9.94482 18.1754 10.0995 18.5896C10.5236 19.7227 10.7365 21.1144 11.7839 21.8112C12.0961 22.0192 12.5074 22.0634 12.8459 21.9033C13.8405 21.4329 14.0944 20.1986 14.5167 19.2514C15.484 17.0829 16.4504 14.9152 17.4178 12.7466L20.1332 6.65786C20.5291 5.76963 20.9677 4.87588 20.9995 3.87259Z" fill="#502314"></path></svg> 